<?xml version="1.0" standalone="no"?>
<!DOCTYPE svg PUBLIC "-//W3C//DTD SVG 20010904//EN"
 "http://www.w3.org/TR/2001/REC-SVG-20010904/DTD/svg10.dtd">
<svg version="1.0" xmlns="http://www.w3.org/2000/svg"
 width="512.000000pt" height="512.000000pt" viewBox="0 0 512.000000 512.000000"
 preserveAspectRatio="xMidYMid meet">

<g transform="translate(0.000000,512.000000) scale(0.100000,-0.100000)"
fill="#000000" stroke="none">
<path d="M2220 3774 c-195 -21 -300 -53 -350 -106 -12 -13 -64 -97 -117 -188
-53 -91 -100 -169 -104 -174 -5 -5 -6 13 -3 40 4 35 1 55 -9 69 -14 18 -20 19
-126 8 -61 -6 -118 -16 -126 -23 -15 -13 -21 -93 -9 -124 4 -10 41 -26 93 -42
47 -14 92 -27 100 -30 11 -4 10 -8 -4 -24 -41 -45 -44 -78 -45 -488 l0 -394
30 -28 30 -28 -92 -1 c-51 -1 -94 -3 -96 -5 -20 -21 1844 -30 2173 -11 155 9
163 10 90 15 -149 10 -497 14 -1080 15 l-580 0 17 35 c10 19 18 40 18 46 0 15
-32 23 -95 25 -27 0 -61 5 -75 9 -14 4 100 8 258 9 155 1 282 3 282 6 0 33
-154 267 -238 363 -72 82 -196 181 -285 228 -38 20 -65 40 -60 44 4 4 61 45
126 90 l118 81 97 -64 c88 -59 212 -174 255 -237 15 -23 17 -23 27 -8 31 51
232 279 345 393 187 188 343 308 555 427 97 55 84 62 -40 22 l-81 -25 -62 24
c-113 45 -325 68 -617 66 -107 -1 -251 -7 -320 -15z m725 -71 c24 -5 -63 -7
-213 -5 -373 6 -619 -22 -733 -85 -56 -30 -130 -105 -190 -195 -22 -32 -42
-58 -45 -58 -6 0 3 17 84 151 64 105 73 116 123 141 50 25 150 46 304 62 68 7
628 -2 670 -11z m-931 -965 c23 -35 32 -108 15 -119 -19 -12 -276 -11 -299 1
-21 11 -52 102 -43 125 4 12 33 15 159 15 148 0 154 -1 168 -22z"/>
<path d="M3169 3463 l-24 -28 28 24 c25 23 32 31 24 31 -2 0 -14 -12 -28 -27z"/>
<path d="M3485 3399 c-4 -6 -5 -12 -2 -15 2 -3 7 2 10 11 7 17 1 20 -8 4z"/>
<path d="M3726 3387 c3 -10 9 -15 12 -12 3 3 0 11 -7 18 -10 9 -11 8 -5 -6z"/>
<path d="M3556 3157 c3 -10 9 -15 12 -12 3 3 0 11 -7 18 -10 9 -11 8 -5 -6z"/>
<path d="M3193 2353 c9 -2 25 -2 35 0 9 3 1 5 -18 5 -19 0 -27 -2 -17 -5z"/>
<path d="M3100 2339 c0 -5 5 -7 10 -4 6 3 10 8 10 11 0 2 -4 4 -10 4 -5 0 -10
-5 -10 -11z"/>
<path d="M2740 1960 c-43 -11 -80 -52 -80 -90 0 -41 36 -77 105 -103 51 -20
60 -27 60 -48 0 -21 -5 -24 -42 -27 -23 -2 -58 1 -78 7 l-35 9 0 -34 c0 -28 4
-35 28 -41 47 -14 149 -8 175 10 37 24 52 77 33 120 -14 34 -26 41 -143 82 -7
2 -13 13 -13 24 0 27 41 37 102 24 l48 -10 0 33 c0 18 -3 35 -7 37 -17 11
-120 15 -153 7z"/>
<path d="M3013 1960 c-88 -28 -98 -138 -14 -174 20 -8 53 -22 74 -30 31 -13
38 -20 35 -38 -2 -19 -10 -24 -45 -26 -23 -2 -59 1 -78 7 l-36 10 3 -37 c3
-35 5 -37 48 -45 138 -24 226 41 187 136 -15 34 -27 41 -144 82 -7 2 -13 13
-13 24 0 27 41 37 102 24 l48 -10 0 33 c0 18 -4 35 -9 38 -18 12 -127 15 -158
6z"/>
<path d="M2421 1938 c-5 -13 -32 -82 -60 -155 -28 -73 -51 -137 -51 -143 0 -5
18 -10 39 -10 36 0 41 3 52 35 7 19 18 35 24 36 5 1 30 1 55 2 42 0 46 -2 63
-36 15 -34 21 -37 57 -37 22 0 40 3 40 8 0 9 -84 232 -107 285 -15 35 -19 37
-60 37 -36 0 -45 -4 -52 -22z m74 -104 c25 -61 21 -74 -25 -74 -22 0 -40 3
-40 6 0 16 36 104 42 104 4 0 15 -16 23 -36z"/>
<path d="M3242 1827 c3 -143 8 -156 68 -187 37 -20 142 -18 174 3 52 34 61 61
65 195 l3 123 -43 -3 -44 -3 -3 -115 c-2 -102 -5 -117 -23 -132 -30 -25 -66
-22 -94 7 -24 23 -25 31 -25 135 l0 110 -41 0 -41 0 4 -133z"/>
<path d="M3600 1794 l0 -165 43 3 42 3 3 45 c6 76 50 76 83 -1 21 -48 23 -49
64 -49 l44 0 -26 60 -26 60 26 28 c22 22 27 38 27 76 0 39 -5 53 -29 77 -29
29 -31 29 -140 29 l-111 0 0 -166z m184 90 c19 -18 21 -55 4 -72 -7 -7 -32
-12 -57 -12 l-46 0 3 50 4 50 38 0 c22 0 45 -7 54 -16z"/>
<path d="M3930 1795 l0 -165 125 0 125 0 0 30 0 30 -80 0 c-76 0 -80 1 -86 24
-9 39 2 46 77 46 l69 0 0 35 0 35 -73 0 -73 0 2 28 c1 15 3 30 3 35 1 4 37 7
81 7 l80 0 0 30 0 30 -125 0 -125 0 0 -165z"/>
</g>
</svg>
